HIERARCHY
ROOT Hips
{
	OFFSET -3.958830 18.904000 13.208200
	CHANNELS 6 Xposition Yposition Zposition Zrotation Yrotation Xrotation 
	JOINT LHipJoint
	{
		OFFSET 0.000000 0.000000 0.000000
		CHANNELS 3 Zrotation Yrotation Xrotation
		JOINT LeftUpLeg
		{
			OFFSET 1.800000 -1.400000 0.085000
			CHANNELS 3 Zrotation Yrotation Xrotation
			JOINT LeftLeg
			{
				OFFSET 2.215000 -6.000000 0.000000
				CHANNELS 3 Zrotation Yrotation Xrotation
				JOINT LeftFoot
				{
					OFFSET 2.500000 -6.900000 0.000000
					CHANNELS 3 Zrotation Yrotation Xrotation
					JOINT LeftToeBase
					{
						OFFSET 0.200000 -0.500000 1.950000
						CHANNELS 3 Zrotation Yrotation Xrotation
						End Site
						{
							OFFSET 0.000000 0.000000 0.000000
						}
					}
				}
			}
		}
	}
	JOINT RHipJoint
	{
		OFFSET 0.000000 0.000000 0.000000
		CHANNELS 3 Zrotation Yrotation Xrotation
		JOINT RightUpLeg
		{
			OFFSET -1.800000 -1.400000 0.085000
			CHANNELS 3 Zrotation Yrotation Xrotation
			JOINT RightLeg
			{
				OFFSET -2.215000 -6.000000 0.000000
				CHANNELS 3 Zrotation Yrotation Xrotation
				JOINT RightFoot
				{
					OFFSET -2.500000 -6.900000 0.000000
					CHANNELS 3 Zrotation Yrotation Xrotation
					JOINT RightToeBase
					{
						OFFSET -0.200000 -0.500000 1.950000
						CHANNELS 3 Zrotation Yrotation Xrotation
						End Site
						{
							OFFSET 0.000000 0.000000 0.000000
						}
					}
				}
			}
		}
	}
	JOINT LowerBack
	{
		OFFSET 0.000000 0.000000 0.000000
		CHANNELS 3 Zrotation Yrotation Xrotation
		JOINT Spine
		{
			OFFSET -0.087000 1.940000 -0.288900
			CHANNELS 3 Zrotation Yrotation Xrotation
			JOINT Spine1
			{
				OFFSET 0.000000 1.950000 0.060000
				CHANNELS 3 Zrotation Yrotation Xrotation
				JOINT Neck
				{
					OFFSET 0.000000 0.000000 0.000000
					CHANNELS 3 Zrotation Yrotation Xrotation
					JOINT Neck1
					{
						OFFSET 0.000000 1.600000 0.340000
						CHANNELS 3 Zrotation Yrotation Xrotation
						JOINT Head
						{
							OFFSET 0.000000 1.667000 -0.240000
							CHANNELS 3 Zrotation Yrotation Xrotation
							End Site
							{
								OFFSET 0.000000 0.000000 0.000000
							}
						}
					}
				}
				JOINT LeftShoulder
				{
					OFFSET 0.000000 0.000000 0.000000
					CHANNELS 3 Zrotation Yrotation Xrotation
					JOINT LeftArm
					{
						OFFSET 2.700000 1.550000 -0.730000
						CHANNELS 3 Zrotation Yrotation Xrotation
						JOINT LeftForeArm
						{
							OFFSET 5.450000 0.000000 0.000000
							CHANNELS 3 Zrotation Yrotation Xrotation
							JOINT LeftHand
							{
								OFFSET 3.450000 0.000000 0.000000
								CHANNELS 3 Zrotation Yrotation Xrotation
								JOINT LeftHandIndex1
								{
									OFFSET 0.750000 0.000000 0.000000
									CHANNELS 3 Zrotation Yrotation Xrotation
									End Site
									{
										OFFSET 0.000000 0.000000 0.000000
									}
								}
							}
						}
					}
				}
				JOINT RightShoulder
				{
					OFFSET 0.000000 0.000000 0.000000
					CHANNELS 3 Zrotation Yrotation Xrotation
					JOINT RightArm
					{
						OFFSET -2.700000 1.550000 -0.730000
						CHANNELS 3 Zrotation Yrotation Xrotation
						JOINT RightForeArm
						{
							OFFSET -5.450000 0.000000 0.000000
							CHANNELS 3 Zrotation Yrotation Xrotation
							JOINT RightHand
							{
								OFFSET -3.450000 0.000000 0.000000
								CHANNELS 3 Zrotation Yrotation Xrotation
								JOINT RightHandIndex1
								{
									OFFSET -0.750000 0.000000 0.000000
									CHANNELS 3 Zrotation Yrotation Xrotation
									End Site
									{
										OFFSET 0.000000 0.000000 0.000000
									}
								}
							}
						}
					}
				}
			}
		}
	}
}
MOTION
Frames: 13
Frame Time: 0.016667
-0.359720 17.018660 -3.985600 4.157223 0.921494 -17.316811 -15.435705 11.475993 5.880649 -15.515899 -9.027972 -64.195715 -3.974366 4.914922 18.304479 -0.620071 2.539125 3.483875 0.309050 0.107640 0.224380 18.047722 -10.151148 2.720851 -12.122700 4.951875 6.834500 18.058658 -9.174240 17.140196 -0.948854 -5.778071 2.433453 -0.030360 -0.173420 0.006510 -3.057959 -1.407133 -9.089392 9.114676 7.422479 44.227596 -5.966642 13.775128 1.968168 5.704463 -4.822695 -15.079171 -10.354738 2.880962 56.093205 1.992000 -4.314590 -23.250210 -36.399368 -15.063177 5.766638 -46.574275 13.677972 -12.777496 -14.660134 -19.795261 -0.914334 -3.072581 2.788027 0.791480 -0.364890 0.256550 0.001030 25.021684 29.152187 12.106031 32.151868 18.569900 -19.592631 -107.421868 61.274803 -82.294656 2.314623 0.524910 -0.103950 0.302920 0.095900 -0.223800 
-0.371390 17.030390 -3.982320 4.777991 1.449310 -17.546486 -15.483928 11.438043 5.966691 -16.105397 -9.672743 -64.937509 -2.632261 5.076926 21.374648 -0.583521 2.836355 3.367543 0.307660 0.106730 0.221000 18.019294 -10.069396 2.687139 -12.709971 4.876259 7.483507 18.037444 -9.132827 16.423415 -0.950097 -5.787613 2.432261 -0.031630 -0.170180 0.006380 -2.954151 -1.535176 -9.103649 7.765779 7.891547 44.464216 -5.277281 13.733038 2.407551 5.574368 -4.806894 -15.285742 -10.324968 2.842150 55.888809 2.424310 -4.439280 -23.531040 -35.674861 -15.456468 6.018438 -46.898201 13.639368 -12.972850 -15.496673 -19.929444 -0.883209 -3.077753 2.783719 0.793380 -0.365440 0.255980 0.000670 24.694475 29.729581 12.252910 31.556740 18.884092 -19.583251 -108.827315 59.958506 -83.448689 2.330660 0.413790 -0.104350 0.305200 0.097910 -0.222270 
-0.392910 17.057140 -3.968780 5.877967 2.211248 -17.644704 -15.582729 11.304078 6.182405 -16.938531 -11.078493 -66.901671 0.308629 5.321457 27.916678 -0.474700 3.667450 3.050669 0.292590 0.087530 0.210040 17.975225 -9.904009 2.589770 -13.624929 4.676442 8.320025 17.778940 -9.040095 15.308112 -0.935439 -5.786680 2.432679 -0.041960 -0.158100 0.015090 -2.752387 -1.707608 -9.145416 5.189237 8.918242 44.329148 -3.787417 13.721423 3.424925 5.319037 -4.650426 -15.589622 -9.767365 2.573171 54.983089 2.417720 -4.414390 -23.259660 -33.759380 -15.848846 6.562406 -48.060628 13.827909 -13.916787 -17.108758 -21.798379 -0.683217 -3.098855 2.799878 0.784740 -0.351790 0.245130 -0.004080 23.486231 30.485500 12.386987 30.946266 19.562916 -19.193126 -111.411725 57.340652 -85.696427 2.341490 0.196067 -0.105280 0.296160 0.108350 -0.221510 
-0.416570 17.109590 -3.945540 7.155556 2.952441 -17.658168 -15.692857 11.104780 6.420341 -17.527863 -12.748970 -69.235587 3.880633 5.514610 36.394587 -0.272936 5.025012 2.551796 0.271750 0.072870 0.185620 17.943024 -9.702943 2.462921 -14.629988 4.351538 9.314739 17.278716 -8.853129 13.788392 -0.915085 -5.776582 2.438138 -0.048410 -0.136120 0.020020 -2.537256 -1.833745 -9.184455 2.116365 10.275665 43.848216 -1.854610 13.774030 4.723209 4.808669 -4.482730 -15.499080 -8.951146 2.198134 53.144736 2.866270 -4.392890 -23.185170 -30.577965 -15.493902 6.971548 -49.365091 13.776660 -15.104192 -21.250669 -24.244850 -0.099134 -3.139483 2.826320 0.763010 -0.331850 0.225920 -0.007440 21.426831 30.597882 12.101993 30.354072 20.648799 -18.085886 -114.078476 54.382036 -88.032074 2.323175 -0.051775 -0.106300 0.288440 0.121010 -0.213830 
-0.433460 17.192310 -3.904460 8.325869 3.246794 -17.488497 -15.793319 10.951682 6.562015 -17.509458 -13.966648 -70.656228 6.880744 5.693490 44.316524 -0.033874 6.502582 2.039137 0.235440 0.035080 0.155590 17.914460 -9.535212 2.338774 -15.435558 3.923605 10.123597 16.423166 -8.597125 12.248770 -0.876365 -5.751678 2.459853 -0.060930 -0.091740 0.025950 -2.329109 -1.935106 -9.179506 -1.040958 11.812110 42.634017 0.315549 13.964438 6.004469 4.120753 -3.844810 -15.146870 -7.125126 1.686383 50.855052 3.109980 -4.086990 -22.056760 -27.000625 -14.650213 7.420942 -50.117055 14.352125 -16.302716 -28.133201 -26.942249 1.098706 -3.207538 2.863712 0.731290 -0.287170 0.186920 -0.013010 19.214101 29.756462 11.462895 29.865961 21.745659 -16.151647 -117.069826 51.817228 -91.160761 2.281445 -0.294902 -0.120260 0.283250 0.143200 -0.211150 
-0.448370 17.301820 -3.847020 9.353254 3.310422 -17.061741 -15.887500 10.831894 6.611247 -17.145645 -14.769370 -71.049514 9.074017 6.020698 51.445896 0.235919 7.918841 1.577563 0.212070 0.014860 0.133060 17.885841 -9.389856 2.233901 -15.992634 3.448092 10.694545 15.445371 -8.270308 10.578292 -0.837745 -5.715486 2.487878 -0.061370 -0.043370 0.034760 -2.123623 -2.012767 -9.121246 -4.240556 13.432167 40.337398 2.819605 14.237803 7.617822 3.372706 -2.803077 -14.605284 -4.592983 1.120815 48.698813 2.999740 -3.671230 -20.095580 -23.287176 -13.441821 7.801200 -50.146253 14.925460 -16.890835 -36.654323 -29.081716 2.922453 -3.281631 2.926800 0.683390 -0.230920 0.145390 -0.008830 16.945350 28.101978 10.561000 29.442429 22.926956 -13.900676 -119.747813 49.843005 -93.912710 2.233141 -0.527081 -0.128300 0.275960 0.153210 -0.204840 
-0.460570 17.441840 -3.783060 10.055374 3.539624 -16.676397 -15.952220 10.776198 6.563684 -16.661664 -15.058447 -69.760288 10.088374 6.673623 57.094982 0.483665 9.076590 1.223454 0.199370 0.009610 0.120370 17.865636 -9.295367 2.170487 -16.230223 2.968196 11.156615 14.498788 -7.959543 9.069019 -0.814513 -5.680841 2.512002 -0.052210 -0.000910 0.042380 -1.974603 -2.076802 -9.019172 -6.966153 14.645493 37.943816 4.917554 14.342084 9.165769 2.753078 -1.557627 -14.024091 -1.907315 0.597278 47.137328 2.969830 -3.334010 -18.527510 -20.103705 -12.251388 7.914515 -48.886276 15.156961 -16.473284 -44.869492 -29.065202 4.482082 -3.348335 2.978252 0.641480 -0.182330 0.115380 -0.002450 14.936240 26.059906 9.710261 29.302140 23.821845 -11.632470 -123.036921 48.062711 -97.457005 2.187460 -0.745566 -0.135230 0.279130 0.158620 -0.197580 
-0.471940 17.606050 -3.726150 10.827817 3.463804 -16.623093 -15.999237 10.889759 6.395366 -15.992144 -14.520647 -67.238897 9.979239 7.938635 61.567864 0.712981 10.030938 0.943829 0.213070 0.040660 0.124670 17.830341 -9.262755 2.110517 -16.416020 2.536862 11.363680 13.131152 -7.643587 8.154520 -0.799600 -5.601056 2.550937 -0.031170 0.012120 0.037260 -1.836434 -2.271483 -8.858469 -9.713958 15.776127 35.983078 6.759211 14.412041 10.569296 2.263414 -0.601612 -13.594823 -0.051752 0.207048 46.349609 2.993000 -3.183560 -17.973590 -17.649377 -11.364301 8.003794 -47.011137 15.540375 -15.895577 -52.362577 -28.092775 5.531857 -3.368725 3.022878 0.614620 -0.161670 0.105730 0.007780 13.445898 24.474023 9.055205 28.848606 24.502030 -9.807006 -126.317217 46.713235 -101.113555 2.152664 -0.916353 -0.131630 0.286640 0.145220 -0.191300 
-0.478470 17.781600 -3.678040 11.042004 2.963913 -16.864047 -16.019571 11.161291 6.121969 -15.163426 -13.204303 -63.511906 9.587787 9.200694 64.431018 0.878395 10.693005 0.750958 0.225970 0.056850 0.143040 17.788720 -9.324551 2.066717 -16.049285 2.038150 11.108263 11.593951 -7.374368 8.088444 -0.773722 -5.463513 2.602553 -0.020120 0.012520 0.040880 -1.736188 -2.502157 -8.675923 -11.410189 16.480920 34.632371 8.114598 14.548935 11.545452 1.980153 0.015210 -13.272498 1.060747 0.047465 46.227983 2.957890 -3.077590 -17.729070 -16.090175 -10.580392 7.946640 -44.959741 15.932384 -15.284061 -58.092088 -26.250630 5.679278 -3.384375 3.047239 0.603600 -0.151050 0.105280 0.004560 12.452474 23.197285 8.632973 28.193121 24.595354 -8.502999 -129.643860 45.473551 -104.707837 2.127080 -1.047929 -0.126240 0.286370 0.137830 -0.192990 
-0.476140 17.964810 -3.635770 10.777160 2.332545 -17.637066 -16.001332 11.589473 5.739478 -14.248963 -11.255127 -58.209121 8.935124 10.298749 65.482184 0.951555 11.010796 0.650069 0.227730 0.047400 0.156970 17.743144 -9.499781 2.059057 -15.459353 1.548755 10.807494 9.993704 -7.214022 8.903201 -0.750466 -5.327558 2.645530 -0.023430 0.000370 0.044420 -1.693733 -2.738699 -8.502779 -11.821225 16.540570 34.369832 8.608976 14.575095 12.207585 1.872787 0.018493 -13.277516 0.954027 0.326890 47.287641 2.986090 -3.084780 -17.782650 -15.142589 -10.193674 7.911721 -42.969708 16.594688 -15.055315 -62.488166 -23.959218 4.937777 -3.386685 3.047316 0.623950 -0.158470 0.111560 -0.012110 11.733542 22.662299 8.664419 27.832196 24.090448 -7.807595 -133.160968 44.299389 -108.969499 2.106508 -1.133348 -0.129790 0.284240 0.148430 -0.205870 
-0.453140 18.144240 -3.603170 9.557092 1.345855 -19.005070 -15.936138 12.199946 5.244890 -12.795451 -8.624229 -51.617812 8.261349 10.909001 64.646699 0.918096 10.941600 0.655096 0.223750 0.024950 0.161130 17.697942 -9.810105 2.088333 -14.300006 1.072944 10.156837 8.554619 -7.208471 11.321995 -0.734724 -5.194351 2.680285 -0.032540 -0.018980 0.045930 -1.723930 -2.962982 -8.356396 -10.111108 15.588162 35.610175 7.993449 14.390059 12.267616 2.041001 -0.670734 -13.479990 -0.621350 1.194351 49.455175 3.125490 -3.198940 -18.255710 -15.197678 -10.030064 7.840027 -41.377712 17.708271 -15.353528 -65.276173 -21.099274 3.139581 -3.375939 3.016204 0.675740 -0.185370 0.130840 -0.027020 11.445038 22.730204 8.912343 27.410622 23.161086 -7.505340 -136.478888 43.288628 -113.177212 2.084925 -1.178625 -0.144130 0.291840 0.169040 -0.222590 
-0.420490 18.305800 -3.579270 7.419847 0.062544 -20.590942 -15.822596 12.878967 4.684594 -10.159179 -5.635030 -44.745089 7.336982 11.318695 62.601965 0.834553 10.630490 0.728485 0.243030 0.036960 0.178450 17.680953 -10.203509 2.143824 -12.432236 0.778870 8.852305 7.337133 -7.277080 15.539013 -0.730875 -5.109781 2.697898 -0.028940 -0.053390 0.047080 -1.854493 -3.084547 -8.214843 -6.609136 13.832953 37.928162 6.593923 14.064018 12.046233 2.426191 -1.567306 -13.567568 -2.632684 2.176834 51.026662 2.938070 -3.300950 -19.405200 -15.532234 -9.558309 7.539171 -39.740323 18.680352 -15.645422 -67.883660 -18.819368 1.546968 -3.348244 3.000232 0.719890 -0.219940 0.160170 -0.034880 10.897663 22.638009 9.010255 27.154181 22.400986 -7.268194 -139.387559 42.373538 -117.103121 2.065861 -1.219876 -0.142110 0.295230 0.170580 -0.234100 
-0.369740 18.432720 -3.555020 4.605514 -1.403354 -21.811161 -15.643125 13.492978 4.113773 -6.828397 -2.715229 -38.067998 6.399571 11.424507 59.335932 0.708568 10.072318 0.881849 0.272590 0.060430 0.208010 17.724803 -10.647302 2.259090 -9.930124 1.145244 6.499272 6.384240 -7.348886 21.675062 -0.752956 -5.163610 2.662076 -0.023990 -0.098610 0.047910 -2.149730 -2.942774 -8.096706 -1.428000 11.226946 40.370444 4.282969 13.347960 11.288442 2.969004 -2.425940 -13.691763 -4.568130 3.056870 52.630337 2.273110 -3.478270 -20.239540 -16.036157 -9.034031 7.062657 -38.316273 19.483764 -15.938778 -69.416316 -15.226035 -1.124289 -3.316977 2.979476 0.752970 -0.259210 0.195260 -0.037180 10.166648 22.183655 9.095954 27.841044 21.595581 -6.817452 -142.148214 41.459525 -120.971809 2.056119 -1.261446 -0.128230 0.292410 0.157250 -0.241510 
